<mxfile compressed="false" host="Electron" modified="2025-04-14T22:21:40.911Z" agent="Mozilla/5.0 (Macintosh; Intel Mac OS X 10_15_7) AppleWebKit/537.36 (KHTML, like Gecko) draw.io/22.1.18 Chrome/120.0.6099.199 Electron/28.1.2 Safari/537.36" etag="KO6crIPCxwv-XxC8ggfa" version="22.1.18" type="device">
  <diagram id="Network Topology" name="Network Topology">
    <mxGraphModel dx="1121" dy="999" grid="0" gridSize="10" guides="1" tooltips="1" connect="1" arrows="1" fold="1" page="1" pageScale="1" pageWidth="500" pageHeight="375" background="none" math="0" shadow="0">
      <root>
        <mxCell id="0" />
        <mxCell id="1" parent="0" />
        <object label="​" id="mid:clab-sros_bngt-bng1:1/1/1:clab-sros_bngt-agg:1/1/2">
          <mxCell style="ellipse;whiteSpace=wrap;html=1;aspect=fixed;fontColor=#FFFFFF;fontSize=6;fillColor=#BEC8D2;strokeColor=none;noLabel=1;" parent="1" vertex="1">
            <mxGeometry x="199.00194585417245" y="115.00244331666207" width="4" height="4" as="geometry" />
          </mxCell>
        </object>
        <object label="rate" source="clab-sros_bngt-bng1:1/1/1:clab-sros_bngt-agg:1/1/2" target="mid:clab-sros_bngt-bng1:1/1/1:clab-sros_bngt-agg:1/1/2" id="link_id:clab-sros_bngt-bng1:1/1/1:clab-sros_bngt-agg:1/1/2">
          <mxCell style="rounded=0;orthogonalLoop=1;html=1;startSize=6;endArrow=classicThin;endFill=1;endSize=2;fontSize=14;strokeColor=#98A2AE;fontColor=#FFFFFF;textOpacity=60;labelBackgroundColor=#4D5766;jumpStyle=gap;strokeWidth=3;" parent="1" source="clab-sros_bngt-bng1:1/1/1:clab-sros_bngt-agg:1/1/2" target="mid:clab-sros_bngt-bng1:1/1/1:clab-sros_bngt-agg:1/1/2" edge="1">
            <mxGeometry x="0.001" relative="1" as="geometry">
              <mxPoint as="offset" />
            </mxGeometry>
          </mxCell>
        </object>
        <object label="rate" source="clab-sros_bngt-agg:1/1/2:clab-sros_bngt-bng1:1/1/1" target="mid:clab-sros_bngt-bng1:1/1/1:clab-sros_bngt-agg:1/1/2" id="link_id:clab-sros_bngt-agg:1/1/2:clab-sros_bngt-bng1:1/1/1">
          <mxCell style="rounded=0;orthogonalLoop=1;html=1;startSize=6;endArrow=classicThin;endFill=1;endSize=2;fontSize=14;strokeColor=#98A2AE;fontColor=#FFFFFF;textOpacity=60;labelBackgroundColor=#4D5766;jumpStyle=gap;strokeWidth=3;" parent="1" source="clab-sros_bngt-agg:1/1/2:clab-sros_bngt-bng1:1/1/1" target="mid:clab-sros_bngt-bng1:1/1/1:clab-sros_bngt-agg:1/1/2" edge="1">
            <mxGeometry relative="1" as="geometry" />
          </mxCell>
        </object>
        <object label="​" id="mid:clab-sros_bngt-bng1:1/1/2:clab-sros_bngt-core:1/1/1">
          <mxCell style="ellipse;whiteSpace=wrap;html=1;aspect=fixed;fontColor=#FFFFFF;fontSize=6;fillColor=#BEC8D2;strokeColor=none;noLabel=1;" parent="1" vertex="1">
            <mxGeometry x="379" y="115.00394904094371" width="4" height="4" as="geometry" />
          </mxCell>
        </object>
        <object label="rate" source="clab-sros_bngt-bng1:1/1/2:clab-sros_bngt-core:1/1/1" target="mid:clab-sros_bngt-bng1:1/1/2:clab-sros_bngt-core:1/1/1" id="link_id:clab-sros_bngt-bng1:1/1/2:clab-sros_bngt-core:1/1/1">
          <mxCell style="rounded=0;orthogonalLoop=1;html=1;startSize=6;endArrow=classicThin;endFill=1;endSize=2;fontSize=14;strokeColor=#98A2AE;fontColor=#FFFFFF;textOpacity=60;labelBackgroundColor=#4D5766;jumpStyle=gap;strokeWidth=3;" parent="1" source="clab-sros_bngt-bng1:1/1/2:clab-sros_bngt-core:1/1/1" target="mid:clab-sros_bngt-bng1:1/1/2:clab-sros_bngt-core:1/1/1" edge="1">
            <mxGeometry relative="1" as="geometry" />
          </mxCell>
        </object>
        <object label="rate" source="clab-sros_bngt-core:1/1/1:clab-sros_bngt-bng1:1/1/2" target="mid:clab-sros_bngt-bng1:1/1/2:clab-sros_bngt-core:1/1/1" id="link_id:clab-sros_bngt-core:1/1/1:clab-sros_bngt-bng1:1/1/2">
          <mxCell style="rounded=0;orthogonalLoop=1;html=1;startSize=6;endArrow=classicThin;endFill=1;endSize=2;fontSize=14;strokeColor=#98A2AE;fontColor=#FFFFFF;textOpacity=60;labelBackgroundColor=#4D5766;jumpStyle=gap;strokeWidth=3;" parent="1" source="clab-sros_bngt-core:1/1/1:clab-sros_bngt-bng1:1/1/2" target="mid:clab-sros_bngt-bng1:1/1/2:clab-sros_bngt-core:1/1/1" edge="1">
            <mxGeometry relative="1" as="geometry" />
          </mxCell>
        </object>
        <object label="​" id="mid:clab-sros_bngt-bng1:1/1/3:clab-sros_bngt-bng2:1/1/3">
          <mxCell style="ellipse;whiteSpace=wrap;html=1;aspect=fixed;fontColor=#FFFFFF;fontSize=6;fillColor=#BEC8D2;strokeColor=none;noLabel=1;" parent="1" vertex="1">
            <mxGeometry x="304.0013032544164" y="187.99753550294432" width="4" height="4" as="geometry" />
          </mxCell>
        </object>
        <object label="rate" source="clab-sros_bngt-bng1:1/1/3:clab-sros_bngt-bng2:1/1/3" target="mid:clab-sros_bngt-bng1:1/1/3:clab-sros_bngt-bng2:1/1/3" id="link_id:clab-sros_bngt-bng1:1/1/3:clab-sros_bngt-bng2:1/1/3">
          <mxCell style="rounded=0;orthogonalLoop=1;html=1;startSize=6;endArrow=classicThin;endFill=1;endSize=2;fontSize=14;strokeColor=#98A2AE;fontColor=#FFFFFF;textOpacity=60;labelBackgroundColor=#4D5766;jumpStyle=gap;strokeWidth=3;" parent="1" source="clab-sros_bngt-bng1:1/1/3:clab-sros_bngt-bng2:1/1/3" target="mid:clab-sros_bngt-bng1:1/1/3:clab-sros_bngt-bng2:1/1/3" edge="1">
            <mxGeometry relative="1" as="geometry" />
          </mxCell>
        </object>
        <object label="rate" source="clab-sros_bngt-bng2:1/1/3:clab-sros_bngt-bng1:1/1/3" target="mid:clab-sros_bngt-bng1:1/1/3:clab-sros_bngt-bng2:1/1/3" id="link_id:clab-sros_bngt-bng2:1/1/3:clab-sros_bngt-bng1:1/1/3">
          <mxCell style="rounded=0;orthogonalLoop=1;html=1;startSize=6;endArrow=classicThin;endFill=1;endSize=2;fontSize=14;strokeColor=#98A2AE;fontColor=#FFFFFF;textOpacity=60;labelBackgroundColor=#4D5766;jumpStyle=gap;strokeWidth=3;" parent="1" source="clab-sros_bngt-bng2:1/1/3:clab-sros_bngt-bng1:1/1/3" target="mid:clab-sros_bngt-bng1:1/1/3:clab-sros_bngt-bng2:1/1/3" edge="1">
            <mxGeometry relative="1" as="geometry" />
          </mxCell>
        </object>
        <object label="​" id="mid:clab-sros_bngt-bng2:1/1/1:clab-sros_bngt-agg:1/1/3">
          <mxCell style="ellipse;whiteSpace=wrap;html=1;aspect=fixed;fontColor=#FFFFFF;fontSize=6;fillColor=#BEC8D2;strokeColor=none;noLabel=1;" parent="1" vertex="1">
            <mxGeometry x="195.0008006531208" y="256" width="4" height="4" as="geometry" />
          </mxCell>
        </object>
        <object label="rate" source="clab-sros_bngt-bng2:1/1/1:clab-sros_bngt-agg:1/1/3" target="mid:clab-sros_bngt-bng2:1/1/1:clab-sros_bngt-agg:1/1/3" id="link_id:clab-sros_bngt-bng2:1/1/1:clab-sros_bngt-agg:1/1/3">
          <mxCell style="rounded=0;orthogonalLoop=1;html=1;startSize=6;endArrow=classicThin;endFill=1;endSize=2;fontSize=14;strokeColor=#98A2AE;fontColor=#FFFFFF;textOpacity=60;labelBackgroundColor=#4D5766;jumpStyle=gap;strokeWidth=3;" parent="1" source="clab-sros_bngt-bng2:1/1/1:clab-sros_bngt-agg:1/1/3" target="mid:clab-sros_bngt-bng2:1/1/1:clab-sros_bngt-agg:1/1/3" edge="1">
            <mxGeometry relative="1" as="geometry" />
          </mxCell>
        </object>
        <object label="rate" source="clab-sros_bngt-agg:1/1/3:clab-sros_bngt-bng2:1/1/1" target="mid:clab-sros_bngt-bng2:1/1/1:clab-sros_bngt-agg:1/1/3" id="link_id:clab-sros_bngt-agg:1/1/3:clab-sros_bngt-bng2:1/1/1">
          <mxCell style="rounded=0;orthogonalLoop=1;html=1;startSize=6;endArrow=classicThin;endFill=1;endSize=2;fontSize=14;strokeColor=#98A2AE;fontColor=#FFFFFF;textOpacity=60;labelBackgroundColor=#4D5766;jumpStyle=gap;strokeWidth=3;" parent="1" source="clab-sros_bngt-agg:1/1/3:clab-sros_bngt-bng2:1/1/1" target="mid:clab-sros_bngt-bng2:1/1/1:clab-sros_bngt-agg:1/1/3" edge="1">
            <mxGeometry relative="1" as="geometry" />
          </mxCell>
        </object>
        <object label="​" id="mid:clab-sros_bngt-bng2:1/1/2:clab-sros_bngt-core:1/1/2">
          <mxCell style="ellipse;whiteSpace=wrap;html=1;aspect=fixed;fontColor=#FFFFFF;fontSize=6;fillColor=#BEC8D2;strokeColor=none;noLabel=1;" parent="1" vertex="1">
            <mxGeometry x="379.0027516855627" y="266.00413667010235" width="4" height="4" as="geometry" />
          </mxCell>
        </object>
        <object label="rate" source="clab-sros_bngt-bng2:1/1/2:clab-sros_bngt-core:1/1/2" target="mid:clab-sros_bngt-bng2:1/1/2:clab-sros_bngt-core:1/1/2" id="link_id:clab-sros_bngt-bng2:1/1/2:clab-sros_bngt-core:1/1/2">
          <mxCell style="rounded=0;orthogonalLoop=1;html=1;startSize=6;endArrow=classicThin;endFill=1;endSize=2;fontSize=14;strokeColor=#98A2AE;fontColor=#FFFFFF;textOpacity=60;labelBackgroundColor=#4D5766;jumpStyle=gap;strokeWidth=3;" parent="1" source="clab-sros_bngt-bng2:1/1/2:clab-sros_bngt-core:1/1/2" target="mid:clab-sros_bngt-bng2:1/1/2:clab-sros_bngt-core:1/1/2" edge="1">
            <mxGeometry relative="1" as="geometry" />
          </mxCell>
        </object>
        <object label="rate" source="clab-sros_bngt-core:1/1/2:clab-sros_bngt-bng2:1/1/2" target="mid:clab-sros_bngt-bng2:1/1/2:clab-sros_bngt-core:1/1/2" id="link_id:clab-sros_bngt-core:1/1/2:clab-sros_bngt-bng2:1/1/2">
          <mxCell style="rounded=0;orthogonalLoop=1;html=1;startSize=6;endArrow=classicThin;endFill=1;endSize=2;fontSize=14;strokeColor=#98A2AE;fontColor=#FFFFFF;textOpacity=60;labelBackgroundColor=#4D5766;jumpStyle=gap;strokeWidth=3;" parent="1" source="clab-sros_bngt-core:1/1/2:clab-sros_bngt-bng2:1/1/2" target="mid:clab-sros_bngt-bng2:1/1/2:clab-sros_bngt-core:1/1/2" edge="1">
            <mxGeometry relative="1" as="geometry" />
          </mxCell>
        </object>
        <object label="​" id="mid:clab-sros_bngt-radius:eth1:clab-sros_bngt-core:1/1/4">
          <mxCell style="ellipse;whiteSpace=wrap;html=1;aspect=fixed;fontColor=#FFFFFF;fontSize=6;fillColor=#BEC8D2;strokeColor=none;noLabel=1;" parent="1" vertex="1">
            <mxGeometry x="456.9954458616796" y="66.00031316137375" width="4" height="4" as="geometry" />
          </mxCell>
        </object>
        <object label="rate" source="clab-sros_bngt-radius:eth1:clab-sros_bngt-core:1/1/4" target="mid:clab-sros_bngt-radius:eth1:clab-sros_bngt-core:1/1/4" id="link_id:clab-sros_bngt-radius:eth1:clab-sros_bngt-core:1/1/4">
          <mxCell style="rounded=0;orthogonalLoop=1;html=1;startSize=6;endArrow=classicThin;endFill=1;endSize=2;fontSize=14;strokeColor=#98A2AE;fontColor=#FFFFFF;textOpacity=60;labelBackgroundColor=#4D5766;jumpStyle=gap;strokeWidth=3;" parent="1" source="clab-sros_bngt-radius:eth1:clab-sros_bngt-core:1/1/4" target="mid:clab-sros_bngt-radius:eth1:clab-sros_bngt-core:1/1/4" edge="1">
            <mxGeometry relative="1" as="geometry" />
          </mxCell>
        </object>
        <object label="rate" source="clab-sros_bngt-core:1/1/4:clab-sros_bngt-radius:eth1" target="mid:clab-sros_bngt-radius:eth1:clab-sros_bngt-core:1/1/4" id="link_id:clab-sros_bngt-core:1/1/4:clab-sros_bngt-radius:eth1">
          <mxCell style="rounded=0;orthogonalLoop=1;html=1;startSize=6;endArrow=classicThin;endFill=1;endSize=2;fontSize=14;strokeColor=#98A2AE;fontColor=#FFFFFF;textOpacity=60;labelBackgroundColor=#4D5766;jumpStyle=gap;strokeWidth=3;" parent="1" source="clab-sros_bngt-core:1/1/4:clab-sros_bngt-radius:eth1" target="mid:clab-sros_bngt-radius:eth1:clab-sros_bngt-core:1/1/4" edge="1">
            <mxGeometry relative="1" as="geometry" />
          </mxCell>
        </object>
        <object label="​" id="mid:clab-sros_bngt-bngblaster:eth1:clab-sros_bngt-agg:1/1/1">
          <mxCell style="ellipse;whiteSpace=wrap;html=1;aspect=fixed;fontColor=#FFFFFF;fontSize=6;fillColor=#BEC8D2;strokeColor=none;noLabel=1;" parent="1" vertex="1">
            <mxGeometry x="96" y="77" width="2" height="2" as="geometry" />
          </mxCell>
        </object>
        <object label="rate" source="clab-sros_bngt-bngblaster:eth1:clab-sros_bngt-agg:1/1/1" target="mid:clab-sros_bngt-bngblaster:eth1:clab-sros_bngt-agg:1/1/1" id="link_id:clab-sros_bngt-bngblaster:eth1:clab-sros_bngt-agg:1/1/1">
          <mxCell style="rounded=0;orthogonalLoop=1;html=1;startSize=6;endArrow=classicThin;endFill=1;endSize=2;fontSize=14;strokeColor=#98A2AE;fontColor=#FFFFFF;textOpacity=60;labelBackgroundColor=#4D5766;jumpStyle=gap;strokeWidth=3;" parent="1" source="clab-sros_bngt-bngblaster:eth1:clab-sros_bngt-agg:1/1/1" target="mid:clab-sros_bngt-bngblaster:eth1:clab-sros_bngt-agg:1/1/1" edge="1">
            <mxGeometry relative="1" as="geometry" />
          </mxCell>
        </object>
        <object label="rate" source="clab-sros_bngt-agg:1/1/1:clab-sros_bngt-bngblaster:eth1" target="mid:clab-sros_bngt-bngblaster:eth1:clab-sros_bngt-agg:1/1/1" id="link_id:clab-sros_bngt-agg:1/1/1:clab-sros_bngt-bngblaster:eth1">
          <mxCell style="rounded=0;orthogonalLoop=1;html=1;startSize=6;endArrow=classicThin;endFill=1;endSize=2;fontSize=14;strokeColor=#98A2AE;fontColor=#FFFFFF;textOpacity=60;labelBackgroundColor=#4D5766;jumpStyle=gap;strokeWidth=3;" parent="1" source="clab-sros_bngt-agg:1/1/1:clab-sros_bngt-bngblaster:eth1" target="mid:clab-sros_bngt-bngblaster:eth1:clab-sros_bngt-agg:1/1/1" edge="1">
            <mxGeometry relative="1" as="geometry" />
          </mxCell>
        </object>
        <object label="​" id="mid:clab-sros_bngt-bngblaster:eth2:clab-sros_bngt-core:1/1/3">
          <mxCell style="ellipse;whiteSpace=wrap;html=1;aspect=fixed;fontColor=#FFFFFF;fontSize=6;fillColor=#BEC8D2;strokeColor=none;noLabel=1;" parent="1" vertex="1">
            <mxGeometry x="337.6248163749764" y="-45.49518362502366" width="4" height="4" as="geometry" />
          </mxCell>
        </object>
        <object label="rate" source="clab-sros_bngt-bngblaster:eth2:clab-sros_bngt-core:1/1/3" target="mid:clab-sros_bngt-bngblaster:eth2:clab-sros_bngt-core:1/1/3" id="link_id:clab-sros_bngt-bngblaster:eth2:clab-sros_bngt-core:1/1/3">
          <mxCell style="rounded=0;orthogonalLoop=1;html=1;startSize=6;endArrow=classicThin;endFill=1;endSize=2;fontSize=14;strokeColor=#98A2AE;fontColor=#FFFFFF;textOpacity=60;labelBackgroundColor=#4D5766;jumpStyle=gap;strokeWidth=3;" parent="1" source="clab-sros_bngt-bngblaster:eth2:clab-sros_bngt-core:1/1/3" target="mid:clab-sros_bngt-bngblaster:eth2:clab-sros_bngt-core:1/1/3" edge="1">
            <mxGeometry relative="1" as="geometry" />
          </mxCell>
        </object>
        <object label="rate" source="clab-sros_bngt-core:1/1/3:clab-sros_bngt-bngblaster:eth2" target="mid:clab-sros_bngt-bngblaster:eth2:clab-sros_bngt-core:1/1/3" id="link_id:clab-sros_bngt-core:1/1/3:clab-sros_bngt-bngblaster:eth2">
          <mxCell style="rounded=0;orthogonalLoop=1;html=1;startSize=6;endArrow=classicThin;endFill=1;endSize=2;fontSize=14;strokeColor=#98A2AE;fontColor=#FFFFFF;textOpacity=60;labelBackgroundColor=#4D5766;jumpStyle=gap;strokeWidth=3;" parent="1" source="clab-sros_bngt-core:1/1/3:clab-sros_bngt-bngblaster:eth2" target="mid:clab-sros_bngt-bngblaster:eth2:clab-sros_bngt-core:1/1/3" edge="1">
            <mxGeometry relative="1" as="geometry" />
          </mxCell>
        </object>
        <mxCell id="group-clab-sros_bngt-bng1" value="" style="group" parent="1" vertex="1" connectable="0">
          <mxGeometry x="250" y="25" width="81" height="81" as="geometry" />
        </mxCell>
        <object label="bng1" id="clab-sros_bngt-bng1">
          <mxCell style="shape=image;imageAlign=center;imageVerticalAlign=middle;labelPosition=left;align=right;verticalLabelPosition=top;spacingLeft=0;verticalAlign=bottom;spacingTop=0;spacing=0;editableCssRules=\.st[0-2]$;labelBackgroundColor=none;aspect=fixed;imageAspect=0;image=data:image/svg+xml,PHN2ZyB4bWxuczp4bGluaz0iaHR0cDovL3d3dy53My5vcmcvMTk5OS94bGluayIgeG1sbnM9Imh0dHA6Ly93d3cudzMub3JnLzIwMDAvc3ZnIiB4bWw6c3BhY2U9InByZXNlcnZlIiBzdHlsZT0iZW5hYmxlLWJhY2tncm91bmQ6bmV3IDAgMCAxMjAgMTIwO2VkaXRhYmxlQ3NzUnVsZXM9Lio7IiB2aWV3Qm94PSIwIDAgMTIwIDEyMCIgeT0iMHB4IiB4PSIwcHgiIGlkPSJMYXllcl8xIiB2ZXJzaW9uPSIxLjEiPiYjeGE7PHN0eWxlIHR5cGU9InRleHQvY3NzIj4mI3hhOwkuc3Qwe2ZpbGw6IzAwMTEzNTt9JiN4YTsJLnN0MXtmaWxsOm5vbmU7c3Ryb2tlOiNGRkZGRkY7c3Ryb2tlLXdpZHRoOjQ7c3Ryb2tlLWxpbmVjYXA6cm91bmQ7c3Ryb2tlLWxpbmVqb2luOnJvdW5kO3N0cm9rZS1taXRlcmxpbWl0OjEwO30mI3hhOwkuc3Qye2ZpbGw6I0ZGRkZGRjt9JiN4YTsJLnN0M3tmaWxsOm5vbmU7c3Ryb2tlOiNGRkZGRkY7c3Ryb2tlLXdpZHRoOjQ7c3Ryb2tlLW1pdGVybGltaXQ6MTA7fSYjeGE7CS5zdDR7ZmlsbDpub25lO3N0cm9rZTojRkZGRkZGO3N0cm9rZS13aWR0aDo0O3N0cm9rZS1saW5lY2FwOnJvdW5kO3N0cm9rZS1saW5lam9pbjpyb3VuZDt9JiN4YTsJLnN0NXtmaWxsOiNGRkZGRkY7c3Ryb2tlOiNGRkZGRkY7c3Ryb2tlLXdpZHRoOjQ7c3Ryb2tlLWxpbmVjYXA6cm91bmQ7c3Ryb2tlLWxpbmVqb2luOnJvdW5kO3N0cm9rZS1taXRlcmxpbWl0OjEwO30mI3hhOwkuc3Q2e2ZpbGw6bm9uZTtzdHJva2U6I0ZGRkZGRjtzdHJva2Utd2lkdGg6NC4yMzMzO3N0cm9rZS1saW5lY2FwOnJvdW5kO3N0cm9rZS1saW5lam9pbjpyb3VuZDtzdHJva2UtbWl0ZXJsaW1pdDoxMDt9JiN4YTsJLnN0N3tmaWxsOm5vbmU7c3Ryb2tlOiNGRkZGRkY7c3Ryb2tlLXdpZHRoOjQ7c3Ryb2tlLWxpbmVjYXA6cm91bmQ7c3Ryb2tlLW1pdGVybGltaXQ6MTA7fSYjeGE7CS5zdDh7ZmlsbDojRkZGRkZGO3N0cm9rZTojRkZGRkZGO3N0cm9rZS13aWR0aDo0O3N0cm9rZS1taXRlcmxpbWl0OjEwO30mI3hhOwkuc3Q5e2ZpbGw6I0ZGRkZGRjtzdHJva2U6I0ZGRkZGRjtzdHJva2Utd2lkdGg6NDt9JiN4YTsJLnN0MTB7ZmlsbDpub25lO3N0cm9rZTojRkZGRkZGO3N0cm9rZS13aWR0aDo0O30mI3hhOwkuc3QxMXtmaWxsOiMyNjI2MjY7c3Ryb2tlOiNGRkZGRkY7c3Ryb2tlLXdpZHRoOjQuMjMzMzt9JiN4YTsJLnN0MTJ7ZmlsbC1ydWxlOmV2ZW5vZGQ7Y2xpcC1ydWxlOmV2ZW5vZGQ7ZmlsbDpub25lO3N0cm9rZTojRkZGRkZGO3N0cm9rZS13aWR0aDo0O3N0cm9rZS1taXRlcmxpbWl0OjEwO30mI3hhOwkuc3QxM3tmaWxsLXJ1bGU6ZXZlbm9kZDtjbGlwLXJ1bGU6ZXZlbm9kZDtmaWxsOiNGRkZGRkY7c3Ryb2tlOiNGRkZGRkY7c3Ryb2tlLXdpZHRoOjQ7fSYjeGE7CS5zdDE0e2ZpbGw6bm9uZTtzdHJva2U6I0ZGRkZGRjtzdHJva2Utd2lkdGg6NC4yMzMzO3N0cm9rZS1saW5lY2FwOnJvdW5kO3N0cm9rZS1saW5lam9pbjpyb3VuZDt9JiN4YTsJLnN0MTV7ZmlsbDpub25lO3N0cm9rZTojRkZGRkZGO3N0cm9rZS13aWR0aDo0O3N0cm9rZS1saW5lY2FwOnJvdW5kO30mI3hhOwkuc3QxNntmaWxsOiNGRkZGRkY7c3Ryb2tlOiNGRkZGRkY7c3Ryb2tlLW1pdGVybGltaXQ6MTA7fSYjeGE7CS5zdDE3e2ZpbGw6IzI2MjYyNjtzdHJva2U6I0ZGRkZGRjtzdHJva2Utd2lkdGg6NDtzdHJva2UtbWl0ZXJsaW1pdDoxMDt9JiN4YTsJLnN0MTh7ZmlsbDojRkZGRkZGO3N0cm9rZTojRkZGRkZGO3N0cm9rZS13aWR0aDo0O3N0cm9rZS1saW5lY2FwOnJvdW5kO3N0cm9rZS1saW5lam9pbjpyb3VuZDt9JiN4YTs8L3N0eWxlPiYjeGE7PHJlY3QgaGVpZ2h0PSIxMjAiIHdpZHRoPSIxMjAiIGNsYXNzPSJzdDAiLz4mI3hhOzxnPiYjeGE7CTxnPiYjeGE7CQk8cGF0aCBkPSJNNzEuNywxOS43VjQ4aDI4IiBjbGFzcz0ic3QxIi8+JiN4YTsJCTxwYXRoIGQ9Ik05MS4yLDM4LjVsNy41LDcuNmMxLjMsMS4zLDEuMywzLjEsMCw0LjNMOTEuMSw1OCIgY2xhc3M9InN0MSIvPiYjeGE7CTwvZz4mI3hhOwk8Zz4mI3hhOwkJPHBhdGggZD0iTTIwLDQ3LjhoMjguNHYtMjgiIGNsYXNzPSJzdDEiLz4mI3hhOwkJPHBhdGggZD0iTTM4LjgsMjguM2w3LjYtNy41YzEuMy0xLjMsMy4xLTEuMyw0LjMsMGw3LjcsNy42IiBjbGFzcz0ic3QxIi8+JiN4YTsJPC9nPiYjeGE7CTxnPiYjeGE7CQk8cGF0aCBkPSJNNDgsMTAwLjNWNzJIMjAiIGNsYXNzPSJzdDEiLz4mI3hhOwkJPHBhdGggZD0iTTI4LjUsODEuNUwyMSw3My45Yy0xLjMtMS4zLTEuMy0zLjEsMC00LjNsNy42LTcuNyIgY2xhc3M9InN0MSIvPiYjeGE7CTwvZz4mI3hhOwk8Zz4mI3hhOwkJPHBhdGggZD0iTTEwMCw3MS45SDcxLjZ2MjgiIGNsYXNzPSJzdDEiLz4mI3hhOwkJPHBhdGggZD0iTTgxLjIsOTEuNGwtNy42LDcuNWMtMS4zLDEuMy0zLjEsMS4zLTQuMywwbC03LjctNy42IiBjbGFzcz0ic3QxIi8+JiN4YTsJPC9nPiYjeGE7PC9nPiYjeGE7PC9zdmc+;fontColor=#1F52EA;" parent="group-clab-sros_bngt-bng1" vertex="1">
            <mxGeometry width="75" height="75" as="geometry" />
          </mxCell>
        </object>
        <object label="1" id="clab-sros_bngt-bng1:1/1/1:clab-sros_bngt-agg:1/1/2">
          <mxCell style="ellipse;whiteSpace=wrap;html=1;aspect=fixed;fontColor=#FFFFFF;fontSize=8;strokeColor=#98A2AE;fillColor=#BEC8D2;" parent="group-clab-sros_bngt-bng1" vertex="1">
            <mxGeometry x="-4" y="31.5" width="12" height="12" as="geometry" />
          </mxCell>
        </object>
        <object label="2" id="clab-sros_bngt-bng1:1/1/2:clab-sros_bngt-core:1/1/1">
          <mxCell style="ellipse;whiteSpace=wrap;html=1;aspect=fixed;fontColor=#FFFFFF;fontSize=8;strokeColor=#98A2AE;fillColor=#BEC8D2;" parent="group-clab-sros_bngt-bng1" vertex="1">
            <mxGeometry x="69" y="31.5" width="12" height="12" as="geometry" />
          </mxCell>
        </object>
        <object label="3" id="clab-sros_bngt-bng1:1/1/3:clab-sros_bngt-bng2:1/1/3">
          <mxCell style="ellipse;whiteSpace=wrap;html=1;aspect=fixed;fontColor=#FFFFFF;fontSize=8;strokeColor=#98A2AE;fillColor=#BEC8D2;" parent="group-clab-sros_bngt-bng1" vertex="1">
            <mxGeometry x="48" y="69" width="12" height="12" as="geometry" />
          </mxCell>
        </object>
        <mxCell id="group-clab-sros_bngt-agg" value="" style="group" parent="1" vertex="1" connectable="0">
          <mxGeometry x="72" y="154.32999999999998" width="81" height="81" as="geometry" />
        </mxCell>
        <object label="agg" id="clab-sros_bngt-agg">
          <mxCell style="shape=image;imageAlign=center;imageVerticalAlign=middle;labelPosition=left;align=right;verticalLabelPosition=top;spacingLeft=0;verticalAlign=bottom;spacingTop=0;spacing=0;editableCssRules=\.st[0-2]$;labelBackgroundColor=none;aspect=fixed;imageAspect=0;image=data:image/svg+xml,PHN2ZyB4bWxuczp4bGluaz0iaHR0cDovL3d3dy53My5vcmcvMTk5OS94bGluayIgeG1sbnM9Imh0dHA6Ly93d3cudzMub3JnLzIwMDAvc3ZnIiB4bWw6c3BhY2U9InByZXNlcnZlIiBzdHlsZT0iZW5hYmxlLWJhY2tncm91bmQ6bmV3IDAgMCAxMjAgMTIwO2VkaXRhYmxlQ3NzUnVsZXM9Lio7IiB2aWV3Qm94PSIwIDAgMTIwIDEyMCIgeT0iMHB4IiB4PSIwcHgiIGlkPSJMYXllcl8xIiB2ZXJzaW9uPSIxLjEiPiYjeGE7PHN0eWxlIHR5cGU9InRleHQvY3NzIj4mI3hhOwkuc3Qwe2ZpbGw6IzAwMTEzNTt9JiN4YTsJLnN0MXtmaWxsOm5vbmU7c3Ryb2tlOiNGRkZGRkY7c3Ryb2tlLXdpZHRoOjQ7c3Ryb2tlLWxpbmVjYXA6cm91bmQ7c3Ryb2tlLWxpbmVqb2luOnJvdW5kO3N0cm9rZS1taXRlcmxpbWl0OjEwO30mI3hhOwkuc3Qye2ZpbGw6I0ZGRkZGRjt9JiN4YTsJLnN0M3tmaWxsOm5vbmU7c3Ryb2tlOiNGRkZGRkY7c3Ryb2tlLXdpZHRoOjQ7c3Ryb2tlLW1pdGVybGltaXQ6MTA7fSYjeGE7CS5zdDR7ZmlsbDpub25lO3N0cm9rZTojRkZGRkZGO3N0cm9rZS13aWR0aDo0O3N0cm9rZS1saW5lY2FwOnJvdW5kO3N0cm9rZS1saW5lam9pbjpyb3VuZDt9JiN4YTsJLnN0NXtmaWxsOiNGRkZGRkY7c3Ryb2tlOiNGRkZGRkY7c3Ryb2tlLXdpZHRoOjQ7c3Ryb2tlLWxpbmVjYXA6cm91bmQ7c3Ryb2tlLWxpbmVqb2luOnJvdW5kO3N0cm9rZS1taXRlcmxpbWl0OjEwO30mI3hhOwkuc3Q2e2ZpbGw6bm9uZTtzdHJva2U6I0ZGRkZGRjtzdHJva2Utd2lkdGg6NC4yMzMzO3N0cm9rZS1saW5lY2FwOnJvdW5kO3N0cm9rZS1saW5lam9pbjpyb3VuZDtzdHJva2UtbWl0ZXJsaW1pdDoxMDt9JiN4YTsJLnN0N3tmaWxsOm5vbmU7c3Ryb2tlOiNGRkZGRkY7c3Ryb2tlLXdpZHRoOjQ7c3Ryb2tlLWxpbmVjYXA6cm91bmQ7c3Ryb2tlLW1pdGVybGltaXQ6MTA7fSYjeGE7CS5zdDh7ZmlsbDojRkZGRkZGO3N0cm9rZTojRkZGRkZGO3N0cm9rZS13aWR0aDo0O3N0cm9rZS1taXRlcmxpbWl0OjEwO30mI3hhOwkuc3Q5e2ZpbGw6I0ZGRkZGRjtzdHJva2U6I0ZGRkZGRjtzdHJva2Utd2lkdGg6NDt9JiN4YTsJLnN0MTB7ZmlsbDpub25lO3N0cm9rZTojRkZGRkZGO3N0cm9rZS13aWR0aDo0O30mI3hhOwkuc3QxMXtmaWxsOiMyNjI2MjY7c3Ryb2tlOiNGRkZGRkY7c3Ryb2tlLXdpZHRoOjQuMjMzMzt9JiN4YTsJLnN0MTJ7ZmlsbC1ydWxlOmV2ZW5vZGQ7Y2xpcC1ydWxlOmV2ZW5vZGQ7ZmlsbDpub25lO3N0cm9rZTojRkZGRkZGO3N0cm9rZS13aWR0aDo0O3N0cm9rZS1taXRlcmxpbWl0OjEwO30mI3hhOwkuc3QxM3tmaWxsLXJ1bGU6ZXZlbm9kZDtjbGlwLXJ1bGU6ZXZlbm9kZDtmaWxsOiNGRkZGRkY7c3Ryb2tlOiNGRkZGRkY7c3Ryb2tlLXdpZHRoOjQ7fSYjeGE7CS5zdDE0e2ZpbGw6bm9uZTtzdHJva2U6I0ZGRkZGRjtzdHJva2Utd2lkdGg6NC4yMzMzO3N0cm9rZS1saW5lY2FwOnJvdW5kO3N0cm9rZS1saW5lam9pbjpyb3VuZDt9JiN4YTsJLnN0MTV7ZmlsbDpub25lO3N0cm9rZTojRkZGRkZGO3N0cm9rZS13aWR0aDo0O3N0cm9rZS1saW5lY2FwOnJvdW5kO30mI3hhOwkuc3QxNntmaWxsOiNGRkZGRkY7c3Ryb2tlOiNGRkZGRkY7c3Ryb2tlLW1pdGVybGltaXQ6MTA7fSYjeGE7CS5zdDE3e2ZpbGw6IzI2MjYyNjtzdHJva2U6I0ZGRkZGRjtzdHJva2Utd2lkdGg6NDtzdHJva2UtbWl0ZXJsaW1pdDoxMDt9JiN4YTsJLnN0MTh7ZmlsbDojRkZGRkZGO3N0cm9rZTojRkZGRkZGO3N0cm9rZS13aWR0aDo0O3N0cm9rZS1saW5lY2FwOnJvdW5kO3N0cm9rZS1saW5lam9pbjpyb3VuZDt9JiN4YTs8L3N0eWxlPiYjeGE7PHJlY3QgaGVpZ2h0PSIxMjAiIHdpZHRoPSIxMjAiIGNsYXNzPSJzdDAiLz4mI3hhOzxnPiYjeGE7CTxnPiYjeGE7CQk8cGF0aCBkPSJNNzEuNywxOS43VjQ4aDI4IiBjbGFzcz0ic3QxIi8+JiN4YTsJCTxwYXRoIGQ9Ik05MS4yLDM4LjVsNy41LDcuNmMxLjMsMS4zLDEuMywzLjEsMCw0LjNMOTEuMSw1OCIgY2xhc3M9InN0MSIvPiYjeGE7CTwvZz4mI3hhOwk8Zz4mI3hhOwkJPHBhdGggZD0iTTIwLDQ3LjhoMjguNHYtMjgiIGNsYXNzPSJzdDEiLz4mI3hhOwkJPHBhdGggZD0iTTM4LjgsMjguM2w3LjYtNy41YzEuMy0xLjMsMy4xLTEuMyw0LjMsMGw3LjcsNy42IiBjbGFzcz0ic3QxIi8+JiN4YTsJPC9nPiYjeGE7CTxnPiYjeGE7CQk8cGF0aCBkPSJNNDgsMTAwLjNWNzJIMjAiIGNsYXNzPSJzdDEiLz4mI3hhOwkJPHBhdGggZD0iTTI4LjUsODEuNUwyMSw3My45Yy0xLjMtMS4zLTEuMy0zLjEsMC00LjNsNy42LTcuNyIgY2xhc3M9InN0MSIvPiYjeGE7CTwvZz4mI3hhOwk8Zz4mI3hhOwkJPHBhdGggZD0iTTEwMCw3MS45SDcxLjZ2MjgiIGNsYXNzPSJzdDEiLz4mI3hhOwkJPHBhdGggZD0iTTgxLjIsOTEuNGwtNy42LDcuNWMtMS4zLDEuMy0zLjEsMS4zLTQuMywwbC03LjctNy42IiBjbGFzcz0ic3QxIi8+JiN4YTsJPC9nPiYjeGE7PC9nPiYjeGE7PC9zdmc+;fontColor=#1F52EA;" parent="group-clab-sros_bngt-agg" vertex="1">
            <mxGeometry y="6" width="75" height="75" as="geometry" />
          </mxCell>
        </object>
        <object label="2" id="clab-sros_bngt-agg:1/1/2:clab-sros_bngt-bng1:1/1/1">
          <mxCell style="ellipse;whiteSpace=wrap;html=1;aspect=fixed;fontColor=#FFFFFF;fontSize=8;strokeColor=#98A2AE;fillColor=#BEC8D2;" parent="group-clab-sros_bngt-agg" vertex="1">
            <mxGeometry x="69" y="27.67" width="12" height="12" as="geometry" />
          </mxCell>
        </object>
        <object label="3" id="clab-sros_bngt-agg:1/1/3:clab-sros_bngt-bng2:1/1/1">
          <mxCell style="ellipse;whiteSpace=wrap;html=1;aspect=fixed;fontColor=#FFFFFF;fontSize=8;strokeColor=#98A2AE;fillColor=#BEC8D2;" parent="group-clab-sros_bngt-agg" vertex="1">
            <mxGeometry x="69" y="45.67" width="12" height="12" as="geometry" />
          </mxCell>
        </object>
        <object label="1" id="clab-sros_bngt-agg:1/1/1:clab-sros_bngt-bngblaster:eth1">
          <mxCell style="ellipse;whiteSpace=wrap;html=1;aspect=fixed;fontColor=#FFFFFF;fontSize=8;strokeColor=#98A2AE;fillColor=#BEC8D2;" parent="group-clab-sros_bngt-agg" vertex="1">
            <mxGeometry x="19" width="12" height="12" as="geometry" />
          </mxCell>
        </object>
        <mxCell id="group-clab-sros_bngt-core" value="" style="group" parent="1" vertex="1" connectable="0">
          <mxGeometry x="383" y="154" width="87" height="81" as="geometry" />
        </mxCell>
        <object label="core" id="clab-sros_bngt-core">
          <mxCell style="shape=image;imageAlign=center;imageVerticalAlign=middle;labelPosition=left;align=right;verticalLabelPosition=top;spacingLeft=0;verticalAlign=bottom;spacingTop=0;spacing=0;editableCssRules=\.st[0-2]$;labelBackgroundColor=none;aspect=fixed;imageAspect=0;image=data:image/svg+xml,PHN2ZyB4bWxuczp4bGluaz0iaHR0cDovL3d3dy53My5vcmcvMTk5OS94bGluayIgeG1sbnM9Imh0dHA6Ly93d3cudzMub3JnLzIwMDAvc3ZnIiB4bWw6c3BhY2U9InByZXNlcnZlIiBzdHlsZT0iZW5hYmxlLWJhY2tncm91bmQ6bmV3IDAgMCAxMjAgMTIwO2VkaXRhYmxlQ3NzUnVsZXM9Lio7IiB2aWV3Qm94PSIwIDAgMTIwIDEyMCIgeT0iMHB4IiB4PSIwcHgiIGlkPSJMYXllcl8xIiB2ZXJzaW9uPSIxLjEiPiYjeGE7PHN0eWxlIHR5cGU9InRleHQvY3NzIj4mI3hhOwkuc3Qwe2ZpbGw6IzAwMTEzNTt9JiN4YTsJLnN0MXtmaWxsOm5vbmU7c3Ryb2tlOiNGRkZGRkY7c3Ryb2tlLXdpZHRoOjQ7c3Ryb2tlLWxpbmVjYXA6cm91bmQ7c3Ryb2tlLWxpbmVqb2luOnJvdW5kO3N0cm9rZS1taXRlcmxpbWl0OjEwO30mI3hhOwkuc3Qye2ZpbGw6I0ZGRkZGRjt9JiN4YTsJLnN0M3tmaWxsOm5vbmU7c3Ryb2tlOiNGRkZGRkY7c3Ryb2tlLXdpZHRoOjQ7c3Ryb2tlLW1pdGVybGltaXQ6MTA7fSYjeGE7CS5zdDR7ZmlsbDpub25lO3N0cm9rZTojRkZGRkZGO3N0cm9rZS13aWR0aDo0O3N0cm9rZS1saW5lY2FwOnJvdW5kO3N0cm9rZS1saW5lam9pbjpyb3VuZDt9JiN4YTsJLnN0NXtmaWxsOiNGRkZGRkY7c3Ryb2tlOiNGRkZGRkY7c3Ryb2tlLXdpZHRoOjQ7c3Ryb2tlLWxpbmVjYXA6cm91bmQ7c3Ryb2tlLWxpbmVqb2luOnJvdW5kO3N0cm9rZS1taXRlcmxpbWl0OjEwO30mI3hhOwkuc3Q2e2ZpbGw6bm9uZTtzdHJva2U6I0ZGRkZGRjtzdHJva2Utd2lkdGg6NC4yMzMzO3N0cm9rZS1saW5lY2FwOnJvdW5kO3N0cm9rZS1saW5lam9pbjpyb3VuZDtzdHJva2UtbWl0ZXJsaW1pdDoxMDt9JiN4YTsJLnN0N3tmaWxsOm5vbmU7c3Ryb2tlOiNGRkZGRkY7c3Ryb2tlLXdpZHRoOjQ7c3Ryb2tlLWxpbmVjYXA6cm91bmQ7c3Ryb2tlLW1pdGVybGltaXQ6MTA7fSYjeGE7CS5zdDh7ZmlsbDojRkZGRkZGO3N0cm9rZTojRkZGRkZGO3N0cm9rZS13aWR0aDo0O3N0cm9rZS1taXRlcmxpbWl0OjEwO30mI3hhOwkuc3Q5e2ZpbGw6I0ZGRkZGRjtzdHJva2U6I0ZGRkZGRjtzdHJva2Utd2lkdGg6NDt9JiN4YTsJLnN0MTB7ZmlsbDpub25lO3N0cm9rZTojRkZGRkZGO3N0cm9rZS13aWR0aDo0O30mI3hhOwkuc3QxMXtmaWxsOiMyNjI2MjY7c3Ryb2tlOiNGRkZGRkY7c3Ryb2tlLXdpZHRoOjQuMjMzMzt9JiN4YTsJLnN0MTJ7ZmlsbC1ydWxlOmV2ZW5vZGQ7Y2xpcC1ydWxlOmV2ZW5vZGQ7ZmlsbDpub25lO3N0cm9rZTojRkZGRkZGO3N0cm9rZS13aWR0aDo0O3N0cm9rZS1taXRlcmxpbWl0OjEwO30mI3hhOwkuc3QxM3tmaWxsLXJ1bGU6ZXZlbm9kZDtjbGlwLXJ1bGU6ZXZlbm9kZDtmaWxsOiNGRkZGRkY7c3Ryb2tlOiNGRkZGRkY7c3Ryb2tlLXdpZHRoOjQ7fSYjeGE7CS5zdDE0e2ZpbGw6bm9uZTtzdHJva2U6I0ZGRkZGRjtzdHJva2Utd2lkdGg6NC4yMzMzO3N0cm9rZS1saW5lY2FwOnJvdW5kO3N0cm9rZS1saW5lam9pbjpyb3VuZDt9JiN4YTsJLnN0MTV7ZmlsbDpub25lO3N0cm9rZTojRkZGRkZGO3N0cm9rZS13aWR0aDo0O3N0cm9rZS1saW5lY2FwOnJvdW5kO30mI3hhOwkuc3QxNntmaWxsOiNGRkZGRkY7c3Ryb2tlOiNGRkZGRkY7c3Ryb2tlLW1pdGVybGltaXQ6MTA7fSYjeGE7CS5zdDE3e2ZpbGw6IzI2MjYyNjtzdHJva2U6I0ZGRkZGRjtzdHJva2Utd2lkdGg6NDtzdHJva2UtbWl0ZXJsaW1pdDoxMDt9JiN4YTsJLnN0MTh7ZmlsbDojRkZGRkZGO3N0cm9rZTojRkZGRkZGO3N0cm9rZS13aWR0aDo0O3N0cm9rZS1saW5lY2FwOnJvdW5kO3N0cm9rZS1saW5lam9pbjpyb3VuZDt9JiN4YTs8L3N0eWxlPiYjeGE7PHJlY3QgaGVpZ2h0PSIxMjAiIHdpZHRoPSIxMjAiIGNsYXNzPSJzdDAiLz4mI3hhOzxnPiYjeGE7CTxnPiYjeGE7CQk8cGF0aCBkPSJNNzEuNywxOS43VjQ4aDI4IiBjbGFzcz0ic3QxIi8+JiN4YTsJCTxwYXRoIGQ9Ik05MS4yLDM4LjVsNy41LDcuNmMxLjMsMS4zLDEuMywzLjEsMCw0LjNMOTEuMSw1OCIgY2xhc3M9InN0MSIvPiYjeGE7CTwvZz4mI3hhOwk8Zz4mI3hhOwkJPHBhdGggZD0iTTIwLDQ3LjhoMjguNHYtMjgiIGNsYXNzPSJzdDEiLz4mI3hhOwkJPHBhdGggZD0iTTM4LjgsMjguM2w3LjYtNy41YzEuMy0xLjMsMy4xLTEuMyw0LjMsMGw3LjcsNy42IiBjbGFzcz0ic3QxIi8+JiN4YTsJPC9nPiYjeGE7CTxnPiYjeGE7CQk8cGF0aCBkPSJNNDgsMTAwLjNWNzJIMjAiIGNsYXNzPSJzdDEiLz4mI3hhOwkJPHBhdGggZD0iTTI4LjUsODEuNUwyMSw3My45Yy0xLjMtMS4zLTEuMy0zLjEsMC00LjNsNy42LTcuNyIgY2xhc3M9InN0MSIvPiYjeGE7CTwvZz4mI3hhOwk8Zz4mI3hhOwkJPHBhdGggZD0iTTEwMCw3MS45SDcxLjZ2MjgiIGNsYXNzPSJzdDEiLz4mI3hhOwkJPHBhdGggZD0iTTgxLjIsOTEuNGwtNy42LDcuNWMtMS4zLDEuMy0zLjEsMS4zLTQuMywwbC03LjctNy42IiBjbGFzcz0ic3QxIi8+JiN4YTsJPC9nPiYjeGE7PC9nPiYjeGE7PC9zdmc+;fontColor=#1F52EA;" parent="group-clab-sros_bngt-core" vertex="1">
            <mxGeometry x="6" width="75" height="75" as="geometry" />
          </mxCell>
        </object>
        <object label="1" id="clab-sros_bngt-core:1/1/1:clab-sros_bngt-bng1:1/1/2">
          <mxCell style="ellipse;whiteSpace=wrap;html=1;aspect=fixed;fontColor=#FFFFFF;fontSize=8;strokeColor=#98A2AE;fillColor=#BEC8D2;" parent="group-clab-sros_bngt-core" vertex="1">
            <mxGeometry x="37.5" y="-3" width="12" height="12" as="geometry" />
          </mxCell>
        </object>
        <object label="2" id="clab-sros_bngt-core:1/1/2:clab-sros_bngt-bng2:1/1/2">
          <mxCell style="ellipse;whiteSpace=wrap;html=1;aspect=fixed;fontColor=#FFFFFF;fontSize=8;strokeColor=#98A2AE;fillColor=#BEC8D2;" parent="group-clab-sros_bngt-core" vertex="1">
            <mxGeometry x="37.5" y="69" width="12" height="12" as="geometry" />
          </mxCell>
        </object>
        <object label="3" id="clab-sros_bngt-core:1/1/3:clab-sros_bngt-bngblaster:eth2">
          <mxCell style="ellipse;whiteSpace=wrap;html=1;aspect=fixed;fontColor=#FFFFFF;fontSize=8;strokeColor=#98A2AE;fillColor=#BEC8D2;" parent="group-clab-sros_bngt-core" vertex="1">
            <mxGeometry x="53" y="-3" width="12" height="12" as="geometry" />
          </mxCell>
        </object>
        <object label="4" id="clab-sros_bngt-core:1/1/4:clab-sros_bngt-radius:eth1">
          <mxCell style="ellipse;whiteSpace=wrap;html=1;aspect=fixed;fontColor=#FFFFFF;fontSize=8;strokeColor=#98A2AE;fillColor=#BEC8D2;" parent="group-clab-sros_bngt-core" vertex="1">
            <mxGeometry x="70" y="-3" width="12" height="12" as="geometry" />
          </mxCell>
        </object>
        <mxCell id="group-clab-sros_bngt-bng2" value="" style="group" parent="1" vertex="1" connectable="0">
          <mxGeometry x="250" y="266" width="81" height="81" as="geometry" />
        </mxCell>
        <object label="bng2" id="clab-sros_bngt-bng2">
          <mxCell style="shape=image;imageAlign=center;imageVerticalAlign=middle;labelPosition=left;align=right;verticalLabelPosition=top;spacingLeft=0;verticalAlign=bottom;spacingTop=0;spacing=0;editableCssRules=\.st[0-2]$;labelBackgroundColor=none;aspect=fixed;imageAspect=0;image=data:image/svg+xml,PHN2ZyB4bWxuczp4bGluaz0iaHR0cDovL3d3dy53My5vcmcvMTk5OS94bGluayIgeG1sbnM9Imh0dHA6Ly93d3cudzMub3JnLzIwMDAvc3ZnIiB4bWw6c3BhY2U9InByZXNlcnZlIiBzdHlsZT0iZW5hYmxlLWJhY2tncm91bmQ6bmV3IDAgMCAxMjAgMTIwO2VkaXRhYmxlQ3NzUnVsZXM9Lio7IiB2aWV3Qm94PSIwIDAgMTIwIDEyMCIgeT0iMHB4IiB4PSIwcHgiIGlkPSJMYXllcl8xIiB2ZXJzaW9uPSIxLjEiPiYjeGE7PHN0eWxlIHR5cGU9InRleHQvY3NzIj4mI3hhOwkuc3Qwe2ZpbGw6IzAwMTEzNTt9JiN4YTsJLnN0MXtmaWxsOm5vbmU7c3Ryb2tlOiNGRkZGRkY7c3Ryb2tlLXdpZHRoOjQ7c3Ryb2tlLWxpbmVjYXA6cm91bmQ7c3Ryb2tlLWxpbmVqb2luOnJvdW5kO3N0cm9rZS1taXRlcmxpbWl0OjEwO30mI3hhOwkuc3Qye2ZpbGw6I0ZGRkZGRjt9JiN4YTsJLnN0M3tmaWxsOm5vbmU7c3Ryb2tlOiNGRkZGRkY7c3Ryb2tlLXdpZHRoOjQ7c3Ryb2tlLW1pdGVybGltaXQ6MTA7fSYjeGE7CS5zdDR7ZmlsbDpub25lO3N0cm9rZTojRkZGRkZGO3N0cm9rZS13aWR0aDo0O3N0cm9rZS1saW5lY2FwOnJvdW5kO3N0cm9rZS1saW5lam9pbjpyb3VuZDt9JiN4YTsJLnN0NXtmaWxsOiNGRkZGRkY7c3Ryb2tlOiNGRkZGRkY7c3Ryb2tlLXdpZHRoOjQ7c3Ryb2tlLWxpbmVjYXA6cm91bmQ7c3Ryb2tlLWxpbmVqb2luOnJvdW5kO3N0cm9rZS1taXRlcmxpbWl0OjEwO30mI3hhOwkuc3Q2e2ZpbGw6bm9uZTtzdHJva2U6I0ZGRkZGRjtzdHJva2Utd2lkdGg6NC4yMzMzO3N0cm9rZS1saW5lY2FwOnJvdW5kO3N0cm9rZS1saW5lam9pbjpyb3VuZDtzdHJva2UtbWl0ZXJsaW1pdDoxMDt9JiN4YTsJLnN0N3tmaWxsOm5vbmU7c3Ryb2tlOiNGRkZGRkY7c3Ryb2tlLXdpZHRoOjQ7c3Ryb2tlLWxpbmVjYXA6cm91bmQ7c3Ryb2tlLW1pdGVybGltaXQ6MTA7fSYjeGE7CS5zdDh7ZmlsbDojRkZGRkZGO3N0cm9rZTojRkZGRkZGO3N0cm9rZS13aWR0aDo0O3N0cm9rZS1taXRlcmxpbWl0OjEwO30mI3hhOwkuc3Q5e2ZpbGw6I0ZGRkZGRjtzdHJva2U6I0ZGRkZGRjtzdHJva2Utd2lkdGg6NDt9JiN4YTsJLnN0MTB7ZmlsbDpub25lO3N0cm9rZTojRkZGRkZGO3N0cm9rZS13aWR0aDo0O30mI3hhOwkuc3QxMXtmaWxsOiMyNjI2MjY7c3Ryb2tlOiNGRkZGRkY7c3Ryb2tlLXdpZHRoOjQuMjMzMzt9JiN4YTsJLnN0MTJ7ZmlsbC1ydWxlOmV2ZW5vZGQ7Y2xpcC1ydWxlOmV2ZW5vZGQ7ZmlsbDpub25lO3N0cm9rZTojRkZGRkZGO3N0cm9rZS13aWR0aDo0O3N0cm9rZS1taXRlcmxpbWl0OjEwO30mI3hhOwkuc3QxM3tmaWxsLXJ1bGU6ZXZlbm9kZDtjbGlwLXJ1bGU6ZXZlbm9kZDtmaWxsOiNGRkZGRkY7c3Ryb2tlOiNGRkZGRkY7c3Ryb2tlLXdpZHRoOjQ7fSYjeGE7CS5zdDE0e2ZpbGw6bm9uZTtzdHJva2U6I0ZGRkZGRjtzdHJva2Utd2lkdGg6NC4yMzMzO3N0cm9rZS1saW5lY2FwOnJvdW5kO3N0cm9rZS1saW5lam9pbjpyb3VuZDt9JiN4YTsJLnN0MTV7ZmlsbDpub25lO3N0cm9rZTojRkZGRkZGO3N0cm9rZS13aWR0aDo0O3N0cm9rZS1saW5lY2FwOnJvdW5kO30mI3hhOwkuc3QxNntmaWxsOiNGRkZGRkY7c3Ryb2tlOiNGRkZGRkY7c3Ryb2tlLW1pdGVybGltaXQ6MTA7fSYjeGE7CS5zdDE3e2ZpbGw6IzI2MjYyNjtzdHJva2U6I0ZGRkZGRjtzdHJva2Utd2lkdGg6NDtzdHJva2UtbWl0ZXJsaW1pdDoxMDt9JiN4YTsJLnN0MTh7ZmlsbDojRkZGRkZGO3N0cm9rZTojRkZGRkZGO3N0cm9rZS13aWR0aDo0O3N0cm9rZS1saW5lY2FwOnJvdW5kO3N0cm9rZS1saW5lam9pbjpyb3VuZDt9JiN4YTs8L3N0eWxlPiYjeGE7PHJlY3QgaGVpZ2h0PSIxMjAiIHdpZHRoPSIxMjAiIGNsYXNzPSJzdDAiLz4mI3hhOzxnPiYjeGE7CTxnPiYjeGE7CQk8cGF0aCBkPSJNNzEuNywxOS43VjQ4aDI4IiBjbGFzcz0ic3QxIi8+JiN4YTsJCTxwYXRoIGQ9Ik05MS4yLDM4LjVsNy41LDcuNmMxLjMsMS4zLDEuMywzLjEsMCw0LjNMOTEuMSw1OCIgY2xhc3M9InN0MSIvPiYjeGE7CTwvZz4mI3hhOwk8Zz4mI3hhOwkJPHBhdGggZD0iTTIwLDQ3LjhoMjguNHYtMjgiIGNsYXNzPSJzdDEiLz4mI3hhOwkJPHBhdGggZD0iTTM4LjgsMjguM2w3LjYtNy41YzEuMy0xLjMsMy4xLTEuMyw0LjMsMGw3LjcsNy42IiBjbGFzcz0ic3QxIi8+JiN4YTsJPC9nPiYjeGE7CTxnPiYjeGE7CQk8cGF0aCBkPSJNNDgsMTAwLjNWNzJIMjAiIGNsYXNzPSJzdDEiLz4mI3hhOwkJPHBhdGggZD0iTTI4LjUsODEuNUwyMSw3My45Yy0xLjMtMS4zLTEuMy0zLjEsMC00LjNsNy42LTcuNyIgY2xhc3M9InN0MSIvPiYjeGE7CTwvZz4mI3hhOwk8Zz4mI3hhOwkJPHBhdGggZD0iTTEwMCw3MS45SDcxLjZ2MjgiIGNsYXNzPSJzdDEiLz4mI3hhOwkJPHBhdGggZD0iTTgxLjIsOTEuNGwtNy42LDcuNWMtMS4zLDEuMy0zLjEsMS4zLTQuMywwbC03LjctNy42IiBjbGFzcz0ic3QxIi8+JiN4YTsJPC9nPiYjeGE7PC9nPiYjeGE7PC9zdmc+;fontColor=#1F52EA;" parent="group-clab-sros_bngt-bng2" vertex="1">
            <mxGeometry x="6" y="6" width="75" height="75" as="geometry" />
          </mxCell>
        </object>
        <object label="3" id="clab-sros_bngt-bng2:1/1/3:clab-sros_bngt-bng1:1/1/3">
          <mxCell style="ellipse;whiteSpace=wrap;html=1;aspect=fixed;fontColor=#FFFFFF;fontSize=8;strokeColor=#98A2AE;fillColor=#BEC8D2;" parent="group-clab-sros_bngt-bng2" vertex="1">
            <mxGeometry x="50" width="12" height="12" as="geometry" />
          </mxCell>
        </object>
        <object label="1" id="clab-sros_bngt-bng2:1/1/1:clab-sros_bngt-agg:1/1/3">
          <mxCell style="ellipse;whiteSpace=wrap;html=1;aspect=fixed;fontColor=#FFFFFF;fontSize=8;strokeColor=#98A2AE;fillColor=#BEC8D2;" parent="group-clab-sros_bngt-bng2" vertex="1">
            <mxGeometry y="37.5" width="12" height="12" as="geometry" />
          </mxCell>
        </object>
        <object label="2" id="clab-sros_bngt-bng2:1/1/2:clab-sros_bngt-core:1/1/2">
          <mxCell style="ellipse;whiteSpace=wrap;html=1;aspect=fixed;fontColor=#FFFFFF;fontSize=8;strokeColor=#98A2AE;fillColor=#BEC8D2;" parent="group-clab-sros_bngt-bng2" vertex="1">
            <mxGeometry x="73" y="34.5" width="12" height="12" as="geometry" />
          </mxCell>
        </object>
        <mxCell id="group-clab-sros_bngt-radius" value="" style="group" parent="1" vertex="1" connectable="0">
          <mxGeometry x="393" y="-97" width="81" height="75" as="geometry" />
        </mxCell>
        <object label="radius" id="clab-sros_bngt-radius">
          <mxCell style="shape=image;imageAlign=center;imageVerticalAlign=middle;labelPosition=left;align=right;verticalLabelPosition=top;spacingLeft=0;verticalAlign=bottom;spacingTop=0;spacing=0;editableCssRules=\.st[0-2]$;labelBackgroundColor=none;aspect=fixed;imageAspect=0;image=data:image/svg+xml,PHN2ZyB4bWxuczp4bGluaz0iaHR0cDovL3d3dy53My5vcmcvMTk5OS94bGluayIgeG1sbnM9Imh0dHA6Ly93d3cudzMub3JnLzIwMDAvc3ZnIiB4bWw6c3BhY2U9InByZXNlcnZlIiBzdHlsZT0iZW5hYmxlLWJhY2tncm91bmQ6bmV3IDAgMCAxMjAgMTIwO2VkaXRhYmxlQ3NzUnVsZXM9Lio7IiB2aWV3Qm94PSIwIDAgMTIwIDEyMCIgeT0iMHB4IiB4PSIwcHgiIGlkPSJMYXllcl8xIiB2ZXJzaW9uPSIxLjEiPiYjeGE7PHN0eWxlIHR5cGU9InRleHQvY3NzIj4mI3hhOwkuc3Qwe2ZpbGw6IzAwMTEzNTt9JiN4YTsJLnN0MXtmaWxsOm5vbmU7c3Ryb2tlOiNGRkZGRkY7c3Ryb2tlLXdpZHRoOjQ7c3Ryb2tlLWxpbmVjYXA6cm91bmQ7c3Ryb2tlLWxpbmVqb2luOnJvdW5kO3N0cm9rZS1taXRlcmxpbWl0OjEwO30mI3hhOwkuc3Qye2ZpbGw6I0ZGRkZGRjt9JiN4YTsJLnN0M3tmaWxsOm5vbmU7c3Ryb2tlOiNGRkZGRkY7c3Ryb2tlLXdpZHRoOjQ7c3Ryb2tlLW1pdGVybGltaXQ6MTA7fSYjeGE7CS5zdDR7ZmlsbDpub25lO3N0cm9rZTojRkZGRkZGO3N0cm9rZS13aWR0aDo0O3N0cm9rZS1saW5lY2FwOnJvdW5kO3N0cm9rZS1saW5lam9pbjpyb3VuZDt9JiN4YTsJLnN0NXtmaWxsOiNGRkZGRkY7c3Ryb2tlOiNGRkZGRkY7c3Ryb2tlLXdpZHRoOjQ7c3Ryb2tlLWxpbmVjYXA6cm91bmQ7c3Ryb2tlLWxpbmVqb2luOnJvdW5kO3N0cm9rZS1taXRlcmxpbWl0OjEwO30mI3hhOwkuc3Q2e2ZpbGw6bm9uZTtzdHJva2U6I0ZGRkZGRjtzdHJva2Utd2lkdGg6NC4yMzMzO3N0cm9rZS1saW5lY2FwOnJvdW5kO3N0cm9rZS1saW5lam9pbjpyb3VuZDtzdHJva2UtbWl0ZXJsaW1pdDoxMDt9JiN4YTsJLnN0N3tmaWxsOm5vbmU7c3Ryb2tlOiNGRkZGRkY7c3Ryb2tlLXdpZHRoOjQ7c3Ryb2tlLWxpbmVjYXA6cm91bmQ7c3Ryb2tlLW1pdGVybGltaXQ6MTA7fSYjeGE7CS5zdDh7ZmlsbDojRkZGRkZGO3N0cm9rZTojRkZGRkZGO3N0cm9rZS13aWR0aDo0O3N0cm9rZS1taXRlcmxpbWl0OjEwO30mI3hhOwkuc3Q5e2ZpbGw6I0ZGRkZGRjtzdHJva2U6I0ZGRkZGRjtzdHJva2Utd2lkdGg6NDt9JiN4YTsJLnN0MTB7ZmlsbDpub25lO3N0cm9rZTojRkZGRkZGO3N0cm9rZS13aWR0aDo0O30mI3hhOwkuc3QxMXtmaWxsOiMyNjI2MjY7c3Ryb2tlOiNGRkZGRkY7c3Ryb2tlLXdpZHRoOjQuMjMzMzt9JiN4YTsJLnN0MTJ7ZmlsbC1ydWxlOmV2ZW5vZGQ7Y2xpcC1ydWxlOmV2ZW5vZGQ7ZmlsbDpub25lO3N0cm9rZTojRkZGRkZGO3N0cm9rZS13aWR0aDo0O3N0cm9rZS1taXRlcmxpbWl0OjEwO30mI3hhOwkuc3QxM3tmaWxsLXJ1bGU6ZXZlbm9kZDtjbGlwLXJ1bGU6ZXZlbm9kZDtmaWxsOiNGRkZGRkY7c3Ryb2tlOiNGRkZGRkY7c3Ryb2tlLXdpZHRoOjQ7fSYjeGE7CS5zdDE0e2ZpbGw6bm9uZTtzdHJva2U6I0ZGRkZGRjtzdHJva2Utd2lkdGg6NC4yMzMzO3N0cm9rZS1saW5lY2FwOnJvdW5kO3N0cm9rZS1saW5lam9pbjpyb3VuZDt9JiN4YTsJLnN0MTV7ZmlsbDpub25lO3N0cm9rZTojRkZGRkZGO3N0cm9rZS13aWR0aDo0O3N0cm9rZS1saW5lY2FwOnJvdW5kO30mI3hhOwkuc3QxNntmaWxsOiNGRkZGRkY7c3Ryb2tlOiNGRkZGRkY7c3Ryb2tlLW1pdGVybGltaXQ6MTA7fSYjeGE7CS5zdDE3e2ZpbGw6IzI2MjYyNjtzdHJva2U6I0ZGRkZGRjtzdHJva2Utd2lkdGg6NDtzdHJva2UtbWl0ZXJsaW1pdDoxMDt9JiN4YTsJLnN0MTh7ZmlsbDojRkZGRkZGO3N0cm9rZTojRkZGRkZGO3N0cm9rZS13aWR0aDo0O3N0cm9rZS1saW5lY2FwOnJvdW5kO3N0cm9rZS1saW5lam9pbjpyb3VuZDt9JiN4YTs8L3N0eWxlPiYjeGE7PHJlY3QgaGVpZ2h0PSIxMjAiIHdpZHRoPSIxMjAiIGNsYXNzPSJzdDAiLz4mI3hhOzxnPiYjeGE7CTxnPiYjeGE7CQk8cGF0aCBkPSJNNzEuNywxOS43VjQ4aDI4IiBjbGFzcz0ic3QxIi8+JiN4YTsJCTxwYXRoIGQ9Ik05MS4yLDM4LjVsNy41LDcuNmMxLjMsMS4zLDEuMywzLjEsMCw0LjNMOTEuMSw1OCIgY2xhc3M9InN0MSIvPiYjeGE7CTwvZz4mI3hhOwk8Zz4mI3hhOwkJPHBhdGggZD0iTTIwLDQ3LjhoMjguNHYtMjgiIGNsYXNzPSJzdDEiLz4mI3hhOwkJPHBhdGggZD0iTTM4LjgsMjguM2w3LjYtNy41YzEuMy0xLjMsMy4xLTEuMyw0LjMsMGw3LjcsNy42IiBjbGFzcz0ic3QxIi8+JiN4YTsJPC9nPiYjeGE7CTxnPiYjeGE7CQk8cGF0aCBkPSJNNDgsMTAwLjNWNzJIMjAiIGNsYXNzPSJzdDEiLz4mI3hhOwkJPHBhdGggZD0iTTI4LjUsODEuNUwyMSw3My45Yy0xLjMtMS4zLTEuMy0zLjEsMC00LjNsNy42LTcuNyIgY2xhc3M9InN0MSIvPiYjeGE7CTwvZz4mI3hhOwk8Zz4mI3hhOwkJPHBhdGggZD0iTTEwMCw3MS45SDcxLjZ2MjgiIGNsYXNzPSJzdDEiLz4mI3hhOwkJPHBhdGggZD0iTTgxLjIsOTEuNGwtNy42LDcuNWMtMS4zLDEuMy0zLjEsMS4zLTQuMywwbC03LjctNy42IiBjbGFzcz0ic3QxIi8+JiN4YTsJPC9nPiYjeGE7PC9nPiYjeGE7PC9zdmc+;fontColor=#1F52EA;" parent="group-clab-sros_bngt-radius" vertex="1">
            <mxGeometry x="6" width="75" height="75" as="geometry" />
          </mxCell>
        </object>
        <object label="1" id="clab-sros_bngt-radius:eth1:clab-sros_bngt-core:1/1/4">
          <mxCell style="ellipse;whiteSpace=wrap;html=1;aspect=fixed;fontColor=#FFFFFF;fontSize=8;strokeColor=#98A2AE;fillColor=#BEC8D2;" parent="group-clab-sros_bngt-radius" vertex="1">
            <mxGeometry x="37.5" y="69" width="12" height="12" as="geometry" />
          </mxCell>
        </object>
        <mxCell id="group-clab-sros_bngt-bngblaster" value="" style="group" parent="1" vertex="1" connectable="0">
          <mxGeometry x="72" y="-84" width="81" height="81" as="geometry" />
        </mxCell>
        <object label="bngblaster" id="clab-sros_bngt-bngblaster">
          <mxCell style="shape=image;imageAlign=center;imageVerticalAlign=middle;labelPosition=left;align=right;verticalLabelPosition=top;spacingLeft=0;verticalAlign=bottom;spacingTop=0;spacing=0;editableCssRules=\.st[0-2]$;labelBackgroundColor=none;aspect=fixed;imageAspect=0;image=data:image/svg+xml,PHN2ZyB4bWxuczp4bGluaz0iaHR0cDovL3d3dy53My5vcmcvMTk5OS94bGluayIgeG1sbnM9Imh0dHA6Ly93d3cudzMub3JnLzIwMDAvc3ZnIiB4bWw6c3BhY2U9InByZXNlcnZlIiBzdHlsZT0iZW5hYmxlLWJhY2tncm91bmQ6bmV3IDAgMCAxMjAgMTIwO2VkaXRhYmxlQ3NzUnVsZXM9Lio7IiB2aWV3Qm94PSIwIDAgMTIwIDEyMCIgeT0iMHB4IiB4PSIwcHgiIGlkPSJMYXllcl8xIiB2ZXJzaW9uPSIxLjEiPiYjeGE7PHN0eWxlIHR5cGU9InRleHQvY3NzIj4mI3hhOwkuc3Qwe2ZpbGw6IzAwMTEzNTt9JiN4YTsJLnN0MXtmaWxsOm5vbmU7c3Ryb2tlOiNGRkZGRkY7c3Ryb2tlLXdpZHRoOjQ7c3Ryb2tlLWxpbmVjYXA6cm91bmQ7c3Ryb2tlLWxpbmVqb2luOnJvdW5kO3N0cm9rZS1taXRlcmxpbWl0OjEwO30mI3hhOwkuc3Qye2ZpbGw6I0ZGRkZGRjt9JiN4YTsJLnN0M3tmaWxsOm5vbmU7c3Ryb2tlOiNGRkZGRkY7c3Ryb2tlLXdpZHRoOjQ7c3Ryb2tlLW1pdGVybGltaXQ6MTA7fSYjeGE7CS5zdDR7ZmlsbDpub25lO3N0cm9rZTojRkZGRkZGO3N0cm9rZS13aWR0aDo0O3N0cm9rZS1saW5lY2FwOnJvdW5kO3N0cm9rZS1saW5lam9pbjpyb3VuZDt9JiN4YTsJLnN0NXtmaWxsOiNGRkZGRkY7c3Ryb2tlOiNGRkZGRkY7c3Ryb2tlLXdpZHRoOjQ7c3Ryb2tlLWxpbmVjYXA6cm91bmQ7c3Ryb2tlLWxpbmVqb2luOnJvdW5kO3N0cm9rZS1taXRlcmxpbWl0OjEwO30mI3hhOwkuc3Q2e2ZpbGw6bm9uZTtzdHJva2U6I0ZGRkZGRjtzdHJva2Utd2lkdGg6NC4yMzMzO3N0cm9rZS1saW5lY2FwOnJvdW5kO3N0cm9rZS1saW5lam9pbjpyb3VuZDtzdHJva2UtbWl0ZXJsaW1pdDoxMDt9JiN4YTsJLnN0N3tmaWxsOm5vbmU7c3Ryb2tlOiNGRkZGRkY7c3Ryb2tlLXdpZHRoOjQ7c3Ryb2tlLWxpbmVjYXA6cm91bmQ7c3Ryb2tlLW1pdGVybGltaXQ6MTA7fSYjeGE7CS5zdDh7ZmlsbDojRkZGRkZGO3N0cm9rZTojRkZGRkZGO3N0cm9rZS13aWR0aDo0O3N0cm9rZS1taXRlcmxpbWl0OjEwO30mI3hhOwkuc3Q5e2ZpbGw6I0ZGRkZGRjtzdHJva2U6I0ZGRkZGRjtzdHJva2Utd2lkdGg6NDt9JiN4YTsJLnN0MTB7ZmlsbDpub25lO3N0cm9rZTojRkZGRkZGO3N0cm9rZS13aWR0aDo0O30mI3hhOwkuc3QxMXtmaWxsOiMyNjI2MjY7c3Ryb2tlOiNGRkZGRkY7c3Ryb2tlLXdpZHRoOjQuMjMzMzt9JiN4YTsJLnN0MTJ7ZmlsbC1ydWxlOmV2ZW5vZGQ7Y2xpcC1ydWxlOmV2ZW5vZGQ7ZmlsbDpub25lO3N0cm9rZTojRkZGRkZGO3N0cm9rZS13aWR0aDo0O3N0cm9rZS1taXRlcmxpbWl0OjEwO30mI3hhOwkuc3QxM3tmaWxsLXJ1bGU6ZXZlbm9kZDtjbGlwLXJ1bGU6ZXZlbm9kZDtmaWxsOiNGRkZGRkY7c3Ryb2tlOiNGRkZGRkY7c3Ryb2tlLXdpZHRoOjQ7fSYjeGE7CS5zdDE0e2ZpbGw6bm9uZTtzdHJva2U6I0ZGRkZGRjtzdHJva2Utd2lkdGg6NC4yMzMzO3N0cm9rZS1saW5lY2FwOnJvdW5kO3N0cm9rZS1saW5lam9pbjpyb3VuZDt9JiN4YTsJLnN0MTV7ZmlsbDpub25lO3N0cm9rZTojRkZGRkZGO3N0cm9rZS13aWR0aDo0O3N0cm9rZS1saW5lY2FwOnJvdW5kO30mI3hhOwkuc3QxNntmaWxsOiNGRkZGRkY7c3Ryb2tlOiNGRkZGRkY7c3Ryb2tlLW1pdGVybGltaXQ6MTA7fSYjeGE7CS5zdDE3e2ZpbGw6IzI2MjYyNjtzdHJva2U6I0ZGRkZGRjtzdHJva2Utd2lkdGg6NDtzdHJva2UtbWl0ZXJsaW1pdDoxMDt9JiN4YTsJLnN0MTh7ZmlsbDojRkZGRkZGO3N0cm9rZTojRkZGRkZGO3N0cm9rZS13aWR0aDo0O3N0cm9rZS1saW5lY2FwOnJvdW5kO3N0cm9rZS1saW5lam9pbjpyb3VuZDt9JiN4YTs8L3N0eWxlPiYjeGE7PHJlY3QgaGVpZ2h0PSIxMjAiIHdpZHRoPSIxMjAiIGNsYXNzPSJzdDAiLz4mI3hhOzxnPiYjeGE7CTxnPiYjeGE7CQk8cGF0aCBkPSJNNzEuNywxOS43VjQ4aDI4IiBjbGFzcz0ic3QxIi8+JiN4YTsJCTxwYXRoIGQ9Ik05MS4yLDM4LjVsNy41LDcuNmMxLjMsMS4zLDEuMywzLjEsMCw0LjNMOTEuMSw1OCIgY2xhc3M9InN0MSIvPiYjeGE7CTwvZz4mI3hhOwk8Zz4mI3hhOwkJPHBhdGggZD0iTTIwLDQ3LjhoMjguNHYtMjgiIGNsYXNzPSJzdDEiLz4mI3hhOwkJPHBhdGggZD0iTTM4LjgsMjguM2w3LjYtNy41YzEuMy0xLjMsMy4xLTEuMyw0LjMsMGw3LjcsNy42IiBjbGFzcz0ic3QxIi8+JiN4YTsJPC9nPiYjeGE7CTxnPiYjeGE7CQk8cGF0aCBkPSJNNDgsMTAwLjNWNzJIMjAiIGNsYXNzPSJzdDEiLz4mI3hhOwkJPHBhdGggZD0iTTI4LjUsODEuNUwyMSw3My45Yy0xLjMtMS4zLTEuMy0zLjEsMC00LjNsNy42LTcuNyIgY2xhc3M9InN0MSIvPiYjeGE7CTwvZz4mI3hhOwk8Zz4mI3hhOwkJPHBhdGggZD0iTTEwMCw3MS45SDcxLjZ2MjgiIGNsYXNzPSJzdDEiLz4mI3hhOwkJPHBhdGggZD0iTTgxLjIsOTEuNGwtNy42LDcuNWMtMS4zLDEuMy0zLjEsMS4zLTQuMywwbC03LjctNy42IiBjbGFzcz0ic3QxIi8+JiN4YTsJPC9nPiYjeGE7PC9nPiYjeGE7PC9zdmc+;fontColor=#1F52EA;" parent="group-clab-sros_bngt-bngblaster" vertex="1">
            <mxGeometry width="75" height="75" as="geometry" />
          </mxCell>
        </object>
        <object label="1" id="clab-sros_bngt-bngblaster:eth1:clab-sros_bngt-agg:1/1/1">
          <mxCell style="ellipse;whiteSpace=wrap;html=1;aspect=fixed;fontColor=#FFFFFF;fontSize=8;strokeColor=#98A2AE;fillColor=#BEC8D2;" parent="group-clab-sros_bngt-bngblaster" vertex="1">
            <mxGeometry x="19" y="69" width="12" height="12" as="geometry" />
          </mxCell>
        </object>
        <object label="2" id="clab-sros_bngt-bngblaster:eth2:clab-sros_bngt-core:1/1/3">
          <mxCell style="ellipse;whiteSpace=wrap;html=1;aspect=fixed;fontColor=#FFFFFF;fontSize=8;strokeColor=#98A2AE;fillColor=#BEC8D2;" parent="group-clab-sros_bngt-bngblaster" vertex="1">
            <mxGeometry x="69" y="31.5" width="12" height="12" as="geometry" />
          </mxCell>
        </object>
      </root>
    </mxGraphModel>
  </diagram>
</mxfile>
